<svg width="764" height="458" viewBox="0 0 764 458" fill="none" xmlns="http://www.w3.org/2000/svg">
<g clip-path="url(#clip0_1918_2067)">
<path d="M48 96C38.5065 96 29.2262 93.1849 21.3327 87.9106C13.4391 82.6363 7.28681 75.1397 3.6538 66.3688C0.0207977 57.598 -0.929762 47.9468 0.922328 38.6357C2.77442 29.3246 7.34599 20.7718 14.0589 14.0589C20.7718 7.34597 29.3246 2.77442 38.6357 0.922328C47.9468 -0.929762 57.598 0.0207977 66.3688 3.6538C75.1397 7.28681 82.6363 13.4391 87.9106 21.3327C93.1849 29.2262 96 38.5065 96 48C95.9856 60.726 90.9239 72.9266 81.9253 81.9253C72.9266 90.9239 60.726 95.9856 48 96ZM48 2.00003C38.9021 2.00003 30.0085 4.69788 22.4438 9.75242C14.8791 14.807 8.9832 21.9912 5.50157 30.3966C2.01994 38.802 1.10899 48.0511 2.88391 56.9742C4.65883 65.8973 9.03989 74.0937 15.4731 80.5269C21.9063 86.9602 30.1027 91.3412 39.0259 93.1161C47.949 94.8911 57.1981 93.9801 65.6035 90.4985C74.0089 87.0168 81.1931 81.1209 86.2476 73.5563C91.3022 65.9916 94 57.098 94 48C93.9862 35.8043 89.1354 24.1121 80.5117 15.4884C71.888 6.86471 60.1957 2.01385 48 2.00003Z" fill="#F2F2F2"/>
<path d="M374 68C369.253 68 364.613 66.5924 360.666 63.9553C356.72 61.3181 353.643 57.5698 351.827 53.1844C350.01 48.799 349.535 43.9734 350.461 39.3179C351.387 34.6623 353.673 30.3859 357.029 27.0294C360.386 23.673 364.662 21.3872 369.318 20.4612C373.973 19.5351 378.799 20.0104 383.184 21.8269C387.57 23.6434 391.318 26.7196 393.955 30.6663C396.592 34.6131 398 39.2533 398 44C397.993 50.363 395.462 56.4633 390.963 60.9626C386.463 65.4619 380.363 67.9928 374 68ZM374 22C369.649 22 365.395 23.2903 361.777 25.7077C358.16 28.1251 355.34 31.561 353.675 35.581C352.01 39.601 351.574 44.0244 352.423 48.292C353.272 52.5596 355.367 56.4796 358.444 59.5563C361.52 62.6331 365.44 64.7284 369.708 65.5773C373.976 66.4262 378.399 65.9905 382.419 64.3254C386.439 62.6602 389.875 59.8404 392.292 56.2225C394.71 52.6047 396 48.3512 396 44C395.993 38.1673 393.673 32.5753 389.549 28.4509C385.425 24.3266 379.833 22.0066 374 22Z" fill="#F2F2F2"/>
<path d="M543 185C537.66 185 532.44 183.416 528 180.45C523.559 177.483 520.099 173.266 518.055 168.332C516.012 163.399 515.477 157.97 516.519 152.733C517.561 147.495 520.132 142.684 523.908 138.908C527.684 135.132 532.495 132.561 537.733 131.519C542.97 130.477 548.399 131.012 553.332 133.055C558.266 135.099 562.483 138.559 565.45 143C568.416 147.44 570 152.66 570 158C569.992 165.158 567.145 172.021 562.083 177.083C557.021 182.145 550.158 184.992 543 185ZM543 133C538.055 133 533.222 134.466 529.111 137.213C525 139.96 521.795 143.865 519.903 148.433C518.011 153.001 517.516 158.028 518.48 162.877C519.445 167.727 521.826 172.181 525.322 175.678C528.819 179.174 533.273 181.555 538.123 182.52C542.972 183.484 547.999 182.989 552.567 181.097C557.135 179.205 561.04 176 563.787 171.889C566.534 167.778 568 162.945 568 158C567.993 151.372 565.356 145.017 560.669 140.331C555.983 135.644 549.628 133.007 543 133Z" fill="#F2F2F2"/>
<path d="M762.057 458H537.057C536.791 458 536.537 457.895 536.35 457.707C536.162 457.52 536.057 457.265 536.057 457C536.057 456.735 536.162 456.48 536.35 456.293C536.537 456.105 536.791 456 537.057 456H762.057C762.322 456 762.576 456.105 762.764 456.293C762.951 456.48 763.057 456.735 763.057 457C763.057 457.265 762.951 457.52 762.764 457.707C762.576 457.895 762.322 458 762.057 458Z" fill="#CCCCCC"/>
<path d="M640.917 160.247C654.481 160.247 665.478 149.251 665.478 135.686C665.478 122.121 654.481 111.125 640.917 111.125C627.352 111.125 616.355 122.121 616.355 135.686C616.355 149.251 627.352 160.247 640.917 160.247Z" fill="#FFB8B8"/>
<path d="M643.466 420.343L631.858 424.285L611.125 381.386L628.258 375.567L643.466 420.343Z" fill="#FFB8B8"/>
<path d="M622.438 423.785L644.825 416.181L649.613 430.277L613.13 442.669C612.501 440.818 612.243 438.861 612.37 436.91C612.498 434.96 613.008 433.053 613.873 431.3C614.737 429.546 615.938 427.98 617.408 426.691C618.878 425.401 620.587 424.414 622.438 423.785Z" fill="#2F2E41"/>
<path d="M669.695 444.575L657.451 445.19L649.25 398.255L667.322 397.346L669.695 444.575Z" fill="#FFB8B8"/>
<path d="M648.528 442.132L672.142 440.945L672.89 455.813L634.407 457.747C634.309 455.794 634.597 453.842 635.253 452C635.91 450.159 636.923 448.465 638.234 447.015C639.545 445.565 641.129 444.387 642.895 443.549C644.662 442.712 646.576 442.23 648.528 442.132Z" fill="#2F2E41"/>
<path d="M592.829 283.63C593.927 282.652 594.798 281.446 595.379 280.095C595.96 278.745 596.238 277.284 596.194 275.814C596.149 274.345 595.783 272.903 595.121 271.591C594.459 270.278 593.517 269.127 592.362 268.218L604.036 234.443L586.044 239.041L577.717 270.409C576.318 272.451 575.717 274.935 576.027 277.39C576.337 279.846 577.538 282.102 579.401 283.732C581.263 285.362 583.659 286.251 586.134 286.232C588.609 286.214 590.992 285.288 592.829 283.63Z" fill="#FFB8B8"/>
<path d="M668.55 430.424C668.392 430.424 668.234 430.416 668.076 430.399L651.456 428.639C650.434 428.536 649.48 428.085 648.752 427.361C648.024 426.638 647.567 425.686 647.458 424.665L634.613 310.156L625.318 341.491L642.647 403.074C642.823 403.701 642.862 404.359 642.759 405.002C642.656 405.646 642.415 406.259 642.052 406.8C641.689 407.341 641.213 407.797 640.656 408.136C640.1 408.475 639.476 408.689 638.829 408.763L621.982 410.7C620.909 410.818 619.829 410.549 618.937 409.941C618.045 409.333 617.4 408.426 617.118 407.384L598.71 338.081C598.558 337.512 598.52 336.918 598.598 336.333L606.872 274.135L668.586 279.083L673.048 425.787C673.067 426.389 672.964 426.989 672.746 427.55C672.529 428.112 672.2 428.625 671.781 429.057C671.361 429.49 670.859 429.834 670.304 430.068C669.749 430.303 669.153 430.424 668.55 430.424Z" fill="#0A2149"/>
<path d="M647.31 284C626.455 284 602.843 276.342 601.414 275.871L601 275.735L624.96 161.018C637 168.501 647.31 168 659.984 161.563L670.247 262.817L672 277.627C666.001 282.237 656.836 284 647.31 284Z" fill="white"/>
<path d="M609.865 279.375L595.275 273.499L602.711 183.555C602.89 181.338 603.565 179.189 604.686 177.267C605.806 175.345 607.344 173.699 609.186 172.452L616.863 167.227C616.646 166.488 616.607 165.709 616.749 164.952C616.892 164.195 617.212 163.483 617.683 162.874C618.154 162.265 618.763 161.777 619.459 161.449C620.156 161.121 620.92 160.962 621.69 160.987L623.889 161.058C624.307 160.776 624.8 160.627 625.304 160.631C625.808 160.635 626.299 160.79 626.713 161.078C627.127 161.366 627.444 161.772 627.623 162.243C627.802 162.714 627.834 163.229 627.716 163.719L627.233 173.248L609.865 279.375Z" fill="#0A2149"/>
<path d="M596.814 263.02L578.125 259.248L590.429 221.01L601.322 184.921C601.631 183.612 602.232 182.39 603.08 181.346C603.928 180.302 605.001 179.463 606.218 178.892C607.436 178.321 608.767 178.032 610.112 178.048C611.457 178.064 612.781 178.383 613.984 178.983C615.86 179.915 617.348 181.477 618.187 183.396C619.026 185.314 619.163 187.467 618.574 189.477L607.127 228.636L596.814 263.02Z" fill="#0A2149"/>
<path d="M633.5 284L632.535 280.35C632.447 280.076 623.862 252.538 638.226 219.678L645.43 183.852L651.585 161.357C651.701 160.955 651.908 160.586 652.191 160.278C652.474 159.97 652.825 159.733 653.217 159.585C653.676 159.425 654.172 159.405 654.643 159.526C655.114 159.647 655.539 159.904 655.865 160.265C660.156 159.006 664.768 159.467 668.725 161.551L677.369 166.105C679.292 167.117 680.823 168.739 681.725 170.716C682.627 172.692 682.847 174.912 682.351 177.028L670.536 227.451L677 278L633.5 284Z" fill="#0A2149"/>
<path d="M645.244 261.337C646.706 261.496 648.184 261.332 649.575 260.858C650.967 260.383 652.237 259.609 653.297 258.591C654.357 257.572 655.181 256.334 655.71 254.962C656.24 253.591 656.462 252.12 656.362 250.653L683.118 230.833L673.765 226.398L644.914 241.26C642.461 241.593 640.216 242.813 638.603 244.69C636.989 246.567 636.121 248.971 636.162 251.445C636.202 253.92 637.149 256.294 638.823 258.117C640.497 259.94 642.782 261.086 645.244 261.337Z" fill="#FFB8B8"/>
<path d="M662.019 252.465L652.982 235.596L675.27 220.928L664.394 181.919C663.958 180.357 663.849 178.722 664.074 177.116C664.298 175.51 664.851 173.968 665.699 172.585C666.546 171.203 667.669 170.01 668.999 169.081C670.328 168.153 671.834 167.508 673.423 167.187C676.232 166.627 679.149 167.106 681.632 168.534C684.114 169.962 685.995 172.242 686.923 174.951L701.598 218.087C701.901 218.975 701.918 219.937 701.647 220.835C701.375 221.734 700.83 222.526 700.086 223.099L662.019 252.465Z" fill="#0A2149"/>
<path d="M642.654 140.895C639.71 141.278 637.489 138.266 636.459 135.481C635.429 132.696 634.644 129.455 632.084 127.95C628.587 125.895 624.112 128.367 620.113 127.689C615.597 126.923 612.66 122.137 612.43 117.562C612.2 112.986 614.02 108.586 615.807 104.368L616.431 109.61C616.347 107.833 616.721 106.065 617.516 104.474C618.312 102.883 619.502 101.523 620.973 100.523L620.17 108.216C620.341 107.154 620.72 106.137 621.285 105.223C621.85 104.308 622.59 103.515 623.463 102.887C624.335 102.259 625.323 101.81 626.37 101.565C627.417 101.32 628.501 101.285 629.562 101.46L629.435 106.043C634.652 105.423 639.914 104.802 645.146 105.275C650.378 105.747 655.646 107.402 659.612 110.848C665.543 116.002 667.71 124.489 666.982 132.313C666.255 140.138 663.025 147.488 659.659 154.589C658.812 156.375 657.641 158.391 655.677 158.619C653.912 158.823 652.297 157.348 651.749 155.658C651.326 153.925 651.343 152.113 651.796 150.387C652.293 147.75 652.918 145.054 652.452 142.412C651.985 139.769 650.084 137.158 647.42 136.834C644.756 136.51 642.03 139.555 643.311 141.913L642.654 140.895Z" fill="#2F2E41"/>
<path d="M321.309 403.577L311.748 399.551L305.19 351.623H217.85L210.741 399.355L202.187 403.632C201.778 403.837 201.45 404.174 201.256 404.588C201.062 405.002 201.014 405.47 201.119 405.916C201.224 406.361 201.476 406.758 201.835 407.042C202.194 407.326 202.638 407.48 203.096 407.48H320.521C320.99 407.48 321.445 407.318 321.808 407.021C322.17 406.724 322.419 406.31 322.512 405.851C322.605 405.391 322.536 404.914 322.317 404.499C322.097 404.085 321.741 403.759 321.309 403.577Z" fill="#E6E6E6"/>
<path d="M476.519 358H47.481C45.2299 357.995 43.0728 357.097 41.4829 355.504C39.8929 353.91 39 351.751 39 349.5V289H485V349.5C485 351.751 484.107 353.91 482.517 355.504C480.927 357.097 478.77 357.995 476.519 358Z" fill="#CCCCCC"/>
<path d="M485.447 317.594H38.6074V58.7271C38.6106 56.0104 39.6912 53.4059 41.6122 51.485C43.5332 49.564 46.1378 48.4835 48.8544 48.4805H475.2C477.917 48.4835 480.522 49.5641 482.443 51.485C484.364 53.4059 485.444 56.0104 485.447 58.7271V317.594Z" fill="#3F3D56"/>
<path d="M458.76 298.805H65.2961C63.2018 298.803 61.1938 297.97 59.7129 296.489C58.2319 295.008 57.3988 293 57.3965 290.906V75.1685C57.3988 73.074 58.2318 71.0661 59.7128 69.5851C61.1938 68.104 63.2017 67.271 65.2961 67.2686H458.76C460.855 67.271 462.863 68.104 464.344 69.5851C465.825 71.0661 466.658 73.074 466.66 75.1685V290.906C466.658 293 465.825 295.008 464.344 296.489C462.863 297.97 460.855 298.803 458.76 298.805Z" fill="white"/>
<path d="M455.057 407.98H74.0566C73.7914 407.98 73.5371 407.875 73.3495 407.688C73.162 407.5 73.0566 407.246 73.0566 406.98C73.0566 406.715 73.162 406.461 73.3495 406.273C73.5371 406.086 73.7914 405.98 74.0566 405.98H455.057C455.322 405.98 455.576 406.086 455.764 406.273C455.951 406.461 456.057 406.715 456.057 406.98C456.057 407.246 455.951 407.5 455.764 407.688C455.576 407.875 455.322 407.98 455.057 407.98Z" fill="#CCCCCC"/>
<path d="M421.795 272H102.26C101.995 272 101.74 271.895 101.553 271.707C101.365 271.52 101.26 271.265 101.26 271V117.847C101.26 117.581 101.365 117.327 101.553 117.14C101.74 116.952 101.995 116.847 102.26 116.847C102.525 116.847 102.779 116.952 102.967 117.14C103.154 117.327 103.26 117.581 103.26 117.847V270H421.795C422.06 270 422.315 270.105 422.502 270.293C422.69 270.48 422.795 270.735 422.795 271C422.795 271.265 422.69 271.52 422.502 271.707C422.315 271.895 422.06 272 421.795 272Z" fill="#3F3D56"/>
<path d="M170.531 261H141.469C140.682 260.999 139.927 260.686 139.371 260.13C138.814 259.573 138.501 258.819 138.5 258.032V217.968C138.501 217.181 138.814 216.427 139.371 215.87C139.927 215.314 140.682 215.001 141.469 215H170.531C171.318 215.001 172.073 215.314 172.629 215.87C173.186 216.427 173.499 217.181 173.5 217.968V258.032C173.499 258.819 173.186 259.573 172.629 260.13C172.073 260.686 171.318 260.999 170.531 261Z" fill="#0C59E5"/>
<path d="M223.531 261H194.469C193.682 260.999 192.927 260.686 192.371 260.13C191.814 259.573 191.501 258.819 191.5 258.032V179.968C191.501 179.181 191.814 178.427 192.371 177.87C192.927 177.314 193.682 177.001 194.469 177H223.531C224.318 177.001 225.073 177.314 225.629 177.87C226.186 178.427 226.499 179.181 226.5 179.968V258.032C226.499 258.819 226.186 259.573 225.629 260.13C225.073 260.686 224.318 260.999 223.531 261Z" fill="#0C59E5"/>
<path d="M276.531 261H247.469C246.682 260.999 245.927 260.686 245.371 260.13C244.814 259.573 244.501 258.819 244.5 258.032V217.968C244.501 217.181 244.814 216.427 245.371 215.87C245.927 215.314 246.682 215.001 247.469 215H276.531C277.318 215.001 278.073 215.314 278.629 215.87C279.186 216.427 279.499 217.181 279.5 217.968V258.032C279.499 258.819 279.186 259.573 278.629 260.13C278.073 260.686 277.318 260.999 276.531 261Z" fill="#0C59E5"/>
<path d="M329.531 261H300.469C299.699 261.016 298.955 260.727 298.399 260.196C297.842 259.665 297.519 258.935 297.5 258.166V164.833C297.519 164.064 297.842 163.334 298.399 162.803C298.955 162.272 299.699 161.983 300.469 162H329.531C330.301 161.983 331.045 162.272 331.601 162.803C332.158 163.334 332.481 164.064 332.5 164.833V258.166C332.481 258.935 332.158 259.665 331.601 260.196C331.045 260.727 330.301 261.016 329.531 261Z" fill="#0C59E5"/>
<path d="M382.531 261H353.469C352.682 260.999 351.927 260.686 351.37 260.13C350.814 259.573 350.501 258.819 350.5 258.032V137.968C350.501 137.181 350.814 136.427 351.37 135.87C351.927 135.314 352.682 135.001 353.469 135H382.531C383.318 135.001 384.073 135.314 384.63 135.87C385.186 136.427 385.499 137.181 385.5 137.968V258.032C385.499 258.819 385.186 259.573 384.63 260.13C384.073 260.686 383.318 260.999 382.531 261Z" fill="#0C59E5"/>
<path d="M156 203C159.314 203 162 200.314 162 197C162 193.686 159.314 191 156 191C152.686 191 150 193.686 150 197C150 200.314 152.686 203 156 203Z" fill="#3F3D56"/>
<path d="M209 164C212.314 164 215 161.314 215 158C215 154.686 212.314 152 209 152C205.686 152 203 154.686 203 158C203 161.314 205.686 164 209 164Z" fill="#3F3D56"/>
<path d="M262 203C265.314 203 268 200.314 268 197C268 193.686 265.314 191 262 191C258.686 191 256 193.686 256 197C256 200.314 258.686 203 262 203Z" fill="#3F3D56"/>
<path d="M315 145C318.314 145 321 142.314 321 139C321 135.686 318.314 133 315 133C311.686 133 309 135.686 309 139C309 142.314 311.686 145 315 145Z" fill="#3F3D56"/>
<path d="M368 123C371.314 123 374 120.314 374 117C374 113.686 371.314 111 368 111C364.686 111 362 113.686 362 117C362 120.314 364.686 123 368 123Z" fill="#3F3D56"/>
<path d="M262.126 198.344L209 158.552L156.6 197.8L155.4 196.2L209 156.053L261.874 195.656L314.415 138.158L314.626 138.072L367.626 116.718L368.374 118.573L315.585 139.842L262.126 198.344Z" fill="#3F3D56"/>
</g>
<defs>
<clipPath id="clip0_1918_2067">
<rect width="763.057" height="458" fill="white"/>
</clipPath>
</defs>
</svg>
